<?xml version="1.0" encoding="UTF-8"?>
<svg id="Layer_2" xmlns="http://www.w3.org/2000/svg" viewBox="0 0 238.92 229.5">
  <defs>
    <style>
      .cls-1 {
        fill: #49d49d;
      }

      .cls-2 {
        stroke: #233241;
      }

      .cls-2, .cls-3, .cls-4, .cls-5 {
        fill: none;
        stroke-linecap: round;
        stroke-linejoin: round;
      }

      .cls-2, .cls-5 {
        stroke-width: 7.56px;
      }

      .cls-3 {
        stroke: #233240;
      }

      .cls-3, .cls-4 {
        stroke-width: 8.06px;
      }

      .cls-4, .cls-5 {
        stroke: #22313f;
      }

      .cls-6 {
        fill: #95f9e3;
      }

      .cls-7 {
        fill: #558564;
      }
    </style>
  </defs>
  <g id="Layer_2-2" data-name="Layer_2">
    <g>
      <g>
        <path class="cls-6" d="M42.49,130.76c1.36-3.19,32.5-57.65,35.19-59.84l-.17-.14.17.14c1.87-1.52,10.97-4.47,13.79-4.76,24.81-2.51,30.41,27.91,42.33,43.14,2.99,2.07,27.14-.48,31.75,1.01,11.19,3.6,11.52,16.88,1.01,21.17-1.97.8-35.88,1.24-38.8.71-11.37-2.09-12.13-13.16-17.62-21.4l-18.4,35.11.65.91c23.01,2.75,45.95-4.82,50.48,15.62.57,2.59,4.11,50.38,3.33,52.91-3.3,10.71-16.97,13.16-23.38,2.52-2.66-4.41-3-36.2-4.61-44.46h0c-14.04-1.26-28.27-1.14-42.29-2.54-.11,1.05-.06,2.1-.07,3.16-.15,25.68,4.75,47.95-13.61,51.4-2.3.43-44.56.42-46.87,0-13.28-2.43-15.42-17.48-5.04-23.58,6.12-3.6,31.09-.38,39.98-1.92.71-10.12.19-20.29.33-30.43.01-1.06-.1-2.12.19-3.17-13.66-7.59-13.72-22.91-8.35-35.54Z"/>
        <path class="cls-7" d="M77.51,70.78l.17.14c-2.69,2.19-33.83,56.65-35.19,59.84-1.42-.38-2.6.25-3.97.49-2.35.41-5.91,1.34-7.52,1.42-17.43.92-30.16-16.14-20.86-33.76,1.47-2.78,25.61-38.96,27.21-40.82,13.74-15.89,35.43-8.29,40.16,12.69Z"/>
      </g>
      <path class="cls-1" d="M195.82,153.13c8.37-.72,18.43,3.4,26.84,4.9l.32.45c6.08,7.52,10.16,14.69,12.02,24.27l.13.53-.23.48c-6.21,15.96-19.93,28.15-35.25,35.16h-.94c-14.82-7.24-28.29-18.85-34.61-34.46l-.25-.51c1.51-10.15,5.42-17.22,11.24-25.46l.29-.45c5.82-.91,15.8-4.51,20.42-4.91Z"/>
      <g>
        <path class="cls-6" d="M160.73,41.79c.04,2.96-1.43,3.96-1.73,4.71-1.64,4.05-2.53,7.63-5.54,11.09-11.13,12.76-31.5,10.2-40.21-4.03-6.58-10.75-.99-23.27,3.65-33.54v-.17s0,.17,0,.17l.44.06c13.23,6.75,30.45,16.15,43.39,21.72Z"/>
        <path class="cls-7" d="M160.73,41.79c-12.95-5.57-30.16-14.97-43.39-21.72l-.44-.06v-.17s.2-.4.2-.4c15.26-33.5,66.41-6.36,47.95,24.19l-.48-.21c-1.28-.55-2.56-1.09-3.84-1.64Z"/>
      </g>
    </g>
    <g>
      <path class="cls-5" d="M222.66,158.03c-12.21,18.5-16.11,40.56-23.48,61.15"/>
      <path class="cls-5" d="M175.39,158.04c13.01,18.13,16.38,40.51,23.78,61.15"/>
      <line class="cls-5" x1="163.86" y1="183.95" x2="235.14" y2="183.28"/>
      <path class="cls-5" d="M235.14,183.28l-.23.48c-6.21,15.96-19.93,28.15-35.25,35.16l-.48.26"/>
      <path class="cls-5" d="M163.86,183.95l.25.51c6.32,15.61,19.79,27.22,34.61,34.46l.46.26"/>
      <line class="cls-4" x1="190.96" y1="157.33" x2="208.33" y2="177.81"/>
      <path class="cls-5" d="M222.66,158.03l.32.45c6.08,7.52,10.16,14.69,12.02,24.27l.13.53"/>
      <path class="cls-5" d="M175.39,158.04l-.29.45c-5.82,8.24-9.73,15.31-11.24,25.46"/>
      <path class="cls-5" d="M175.39,158.04c5.82-.91,15.8-4.51,20.42-4.91,8.37-.72,18.43,3.4,26.84,4.9"/>
      <line class="cls-5" x1="207.67" y1="157.34" x2="190.48" y2="177.18"/>
      <path class="cls-3" d="M165.05,43.64c18.46-30.56-32.69-57.69-47.95-24.19-.08.18-.12.38-.2.56-4.65,10.28-10.23,22.79-3.65,33.54,8.71,14.23,29.09,16.79,40.21,4.03,3.01-3.46,3.9-7.04,5.54-11.09"/>
      <path class="cls-3" d="M100.38,11.34c5.47,2.9,10.99,5.69,16.5,8.5.15.08.3.15.45.23,13.23,6.75,30.45,16.15,43.39,21.72,1.28.55,2.56,1.09,3.84,1.64l.48.21"/>
      <line class="cls-3" x1="165.05" y1="43.64" x2="180.82" y2="51.94"/>
      <path class="cls-2" d="M118.21,173.37c1.61,8.26,1.95,40.06,4.61,44.46,6.41,10.64,20.08,8.19,23.38-2.52.78-2.54-2.75-50.32-3.33-52.91-4.53-20.44-27.48-12.87-50.48-15.62l-.65-.91,18.4-35.11c5.49,8.23,6.25,19.31,17.62,21.4,2.92.54,36.83.1,38.8-.71,10.51-4.28,10.18-17.57-1.01-21.17-4.61-1.48-28.76,1.06-31.75-1.01-11.92-15.23-17.52-45.65-42.33-43.14-2.82.29-11.92,3.24-13.79,4.76-2.69,2.19-33.83,56.65-35.19,59.84-5.37,12.62-5.31,27.95,8.35,35.54,6.19,3.44,17.93,3.83,25.08,4.54,14.02,1.4,28.25,1.28,42.29,2.54h0Z"/>
      <path class="cls-2" d="M50.65,169.46c-.14,10.14.38,20.31-.33,30.43-8.89,1.54-33.86-1.68-39.98,1.92-10.38,6.11-8.24,21.16,5.04,23.58,2.31.42,44.56.43,46.87,0,18.35-3.45,13.45-25.73,13.61-51.4"/>
      <path class="cls-2" d="M77.51,70.78c-4.73-20.97-26.42-28.58-40.16-12.69-1.6,1.86-25.75,38.04-27.21,40.82-9.3,17.62,3.43,34.68,20.86,33.76,1.61-.08,5.17-1.01,7.52-1.42"/>
    </g>
  </g>
</svg>