<?xml version="1.0" encoding="UTF-8"?>
<svg id="Layer_2" xmlns="http://www.w3.org/2000/svg" viewBox="0 0 4957 2474.99">
  <g id="Content">
    <path id="Design" d="M4949.5,2422.66h-926c-1.69,0-3.25.51-4.5,1.39,5.99-5.66,9-10.63,9-14.89,0-10.46-13.06-52.39-30.13-106.12l-3.22-10.14c-1.71-5.38-3.69-11.1-5.93-17.06-3.74-18.26-7.17-35.31-8.78-47.64-1.56-11.95.23-25.67,2.12-40.21,2.43-18.73,4.95-38.06,1.12-57.32,8.52-13.47,14.21-35.12,17.78-66.66,3.52-31.07,9.13-64.79,15.08-100.48,14.24-85.52,31.97-191.96,31.97-329.36,0-193.8-20.99-441.02-27.29-463.06-1.35-4.74-3.95-7.52-7.71-8.25-6.22-1.22-9.92,3.49-16.05,11.29-12.4,15.79-40.74,51.89-109.64,75.8-52.83-5.88-109-7.44-154.34-4.25-25.37,1.78-43.54-3.44-55.55-15.96-8.86-9.23-13.92-22.18-16.53-37.11,14.95,12.46,47.07,18.99,74.05,22.37,44.26,5.55,96.19,5.41,142.49-.37,47.2-5.9,82.51-21.11,104.93-45.21,20.23-21.74,30.2-50.79,29.63-86.35-.67-42.18-5.7-71.67-15.6-90.33,2.98-4.32,5.39-9,7.18-14.06,12.17-34.47,2.51-114.94-6.83-192.75-.74-6.15-1.47-12.25-2.18-18.26,3.97-4.53,7.83-9.93,11.38-16.36,12.65-22.91,19.06-54.58,19.06-94.12,0-7.48.12-14.72.25-21.72.61-35.11,1.1-63.61-14.46-84.61,2.54.15,5.99-.62,9.65-4.36,5.68-5.8,10.27-16.93,11.96-29.06,1.51-10.78,1.5-27.58-7.07-46.37-7.54-16.52-6.64-25.11-3.57-27.45,4.24-3.23,18.59-1.23,35.93,13.31,21.33,17.89,75.17,82.69,114.44,297.6,34.54,189.02,16.18,414.93,12.54,440.46-2.89,1.07-8.5,2.1-15.85,3-1.28-1.67-2.68-3.25-4.24-4.72-11.72-11.09-30.38-15.28-60.49-13.58-4.14.23-7.3,3.77-7.07,7.91.23,4.13,3.75,7.28,7.91,7.07,20.07-1.13,34.07.53,43.18,5.21-19.48,1.31-42.88,1.82-61.64.83.01-11.66-.27-21.39-.47-26.81-.13-3.46-.34-6.95-.54-10.33-.82-13.7-1.66-27.87,3.61-33.11,2.25-2.24,6.27-3.18,11.93-2.81,9.65.64,19.38-3.32,28.09-11.47,21.48-20.09,35.91-63.5,35.91-108.01,0-9.33-1.83-18.26-4.92-26.64,3.2-4.41,4.92-10.29,4.92-17.36,0-45.73-31.99-306.95-49.26-370.95-8.96-33.19-15.38-44.27-25.57-43.86-12.13.47-18.58,17.33-30.04,78.43-15.15,80.78-27.11,156.84-20.11,269.85,2.58,41.73.92,93.48-.7,143.53-3.51,108.76-4.23,165.78,19.48,171.31,3.53.82,7.77,1.49,12.51,2.02-.52,22-2.28,43.3-6.02,56.66-1.77,6.33-4.01,11.8-6.17,17.09-5.86,14.35-11.92,29.18,4.25,44.39,12.77,12.02,25.22,5.26,31.91,1.63.59-.32,1.31-.71,2-1.07.43,1.61.87,3.21,1.32,4.79,4.59,16.37,7.91,28.2-16.21,50.71-21.58,20.14-18.76,32.44-15.16,37.98,7.04,10.83,25.34,10.97,50.21.4,20.72-8.81,37.51-28.59,48.56-57.2,9.81-25.42,15-57.13,15-91.7v-5.19c.02-25.05.04-45.42-4.97-60.81,14.82-2.33,20.76-5.14,22.59-10.62,2.22-6.66,7.92-72.03,9.01-154.77,1.01-77.22-1.76-191.07-20.75-294.95-16.2-88.63-36.68-161.57-60.88-216.79-23.14-52.8-44.68-77.87-58.67-89.61-20.69-17.35-42.65-22.88-54.65-13.75-7.39,5.62-13.55,18.1-.99,45.61,7.5,16.44,7.15,30.91,5.53,40.16-.47,2.69-1.07,5.09-1.73,7.2-1.32-12.47-5.05-29.1-11.77-45.99-7.39-18.58-20.55-42.58-41.29-51.38-8.98-3.81-30.75-7.22-59.68-10.32,4.8.22,9.58.45,14.34.71,64.23,3.49,84.18,1.4,92.83-9.71,6.65-8.54,3.95-19.53-.26-33.01-5.33-17.07-20.78-29.77-43.49-35.76-19.08-5.04-41.1-4.72-58.9.84-22.61,7.06-66.15,17.11-127.72,15.68,45.36-3.54,98.01-13.71,132.77-42.77,27.2-22.73,41.69-50,43.08-81.04,1.59-35.63-15.45-74.89-45.58-105.02-11.71-11.71-23.76-25.55-36.51-40.19-34.08-39.15-69.33-79.64-104.48-85.89-20.13-3.58-46.01,5.26-71.01,24.24-7.26,5.51-14.19,11.69-20.68,18.39-31.37,10.21-64.2,32.5-91.41,63.32-35.13,39.8-51.4,83.23-43.51,116.17,8.51,35.55,33.27,70.01,69.7,97.03,20.83,15.44,44.29,27.67,68.78,36.04-.87,4.25-1.06,9.24-1.26,14.56-.31,8.29-.79,20.82-5.09,22.83-2.08.97-5.83,2.6-10.59,4.68-30.12,13.12-100.64,43.84-139.93,75.26-23.12,18.49-44.01,57.01-62.09,114.48-16.86,53.57-30.57,122.21-39.67,198.49-8.86,74.35-15.71,156.24-18.79,224.68-2.32,51.61-3.46,116.96,4.35,135.17,1.84,4.29,5.07,8.44,9.66,12.44-1.21,1.56-2.37,3.26-3.45,5.08-5.92,9.97-9.71,24.55-2.62,35.58,4.67,7.26,19.84,14.4,45.62,23.51-15.51.63-19.63,2.72-21.88,6.56-1.64,2.8-1.52,6.26.32,9.03,2.4,3.6,7.48,5.86,22.08,9.42-1.14-.01-2.31-.02-3.51-.04-2.02-.02-3.53-.04-4.33-.04-1.65,0-4.81.5-7.47,3.88-8.26,10.49-12.29,58.7.18,110.38,12.19,50.49,66.61,85.33,93.03,92.77,10.53,2.96,18.12,2.21,22.56-2.23,1.55-1.55,2.72-3.18,3.58-4.89,3.51,77.46,7.18,161.78,7.62,220.64.86,116.2,3.34,130.07,17.12,207.05,2.33,13.02,4.97,27.78,7.99,45.18,10.04,57.87,22.74,104.7,32.94,142.33,8.39,30.95,15.45,56.99,18.43,79.42-31.84-12.21-81.61-16.17-129.94-20.02-31.93-2.54-62.09-4.95-85.6-9.53-29.26-5.7-37.56-12.94-39.38-18.01-4.01-11.23,6.88-17.55,32.7-29.3,14.35-6.53,30.62-13.94,42.54-24.77,14.44-13.14,20.2-29.49,17.11-48.6-3.02-18.64-15.25-33.82-36.37-45.12-16.91-9.05-40.15-15.85-69.08-20.22-51.8-7.82-112.84-6.63-153.24-5.84-14.72.29-27.44.54-35.7.26-159.95-5.27-286.26-45-386.17-121.44-18.51-14.16-36.92-29.66-54.73-44.65-54.61-45.97-111.07-93.5-182.59-114-40.04-11.48-81.37-19.5-121.33-27.25-44.96-8.73-91.45-17.75-135.97-31.7-156.32-49-290.06-49.95-511.63-51.53-65.44-.47-139.62-.99-224.45-2.81-368.84-7.91-1552.3-.08-1564.21,0-4.14.03-7.48,3.41-7.45,7.55.03,4.14,3.38,7.49,7.55,7.45,11.91-.08,1195.16-7.91,1563.79,0,84.94,1.82,159.17,2.35,224.66,2.82,220.17,1.57,353.06,2.51,507.25,50.84,45.32,14.2,92.23,23.31,137.6,32.11,39.65,7.7,80.65,15.65,120.06,26.95,68.43,19.62,123.66,66.1,177.06,111.05,17.94,15.1,36.49,30.72,55.28,45.09,54.08,41.38,117.21,72.83,187.62,93.48,62.61,18.36,130.37,28.51,207.17,31.04,8.65.28,20.93.05,36.48-.26,39.89-.78,100.17-1.96,150.71,5.67,57.35,8.66,88.6,26.46,92.88,52.9,4.77,29.48-18.15,42.35-51.05,57.33-12.04,5.48-23.4,10.65-31.29,17.29-10.35,8.71-13.48,19.04-9.32,30.71,4.73,13.25,20.35,21.79,50.64,27.69,24.35,4.74,54.92,7.17,87.28,9.75,51.29,4.09,104.23,8.31,132.57,22,.04,1.36.08,2.71.08,4.04,0,25.07-4.15,42.42-8.17,59.19-4.33,18.11-8.42,35.21-6.82,59.31,1.7,25.56,12.51,48.13,30.44,63.55,17.08,14.7,38.74,21.42,62.67,19.42,27.32-2.28,43.04-8.58,52.57-21.06,5.64-7.39,8.79-16.87,9.53-29.23,4.17-7.59,7.35-16.45,9.22-26.67-1.62,26.23,2.13,48.15,17.38,60.34,15.16,12.13,14.76,17.03,13.57,31.59-.83,10.12-1.96,23.97,1.73,44.86,4.17,23.62,16.64,38.4,38.13,45.18,14.2,4.48,31.33,5.34,50.82,5.34,5.83,0,11.87-.08,18.11-.16,6.57-.08,13.37-.17,20.32-.17,52.95,0,68.37-24.72,72.76-37h920.24c4.14,0,7.5-3.36,7.5-7.5s-3.36-7.5-7.5-7.5ZM4062.2,1197.86c-.07-.02-7.11-2.15-9.13-45.19-1.39-29.63-.12-69.17,1.23-111.03,1.62-50.39,3.31-102.5.68-144.94-6.89-111.28,4.93-186.38,19.89-266.15,4.13-22.02,7.45-37.34,10.46-48.24,2.31-8.38,4.17-13.04,5.44-15.6,2.07,3.74,5.53,12.03,10.49,30.41,16.24,60.18,47.67,314.35,48.71,364.67-11.91-18.08-28.67-31.88-41.77-38.9-9.19-4.93-21.99-9.6-30.72-3.8-2.79,1.85-7.33,6.36-6.45,15.78,2.51,26.72,43.31,55.79,69.16,55.78.52,0,1.03-.01,1.54-.04,1.87-.09,3.63-.33,5.3-.71,1.89,5.94,2.96,12.07,2.96,18.26,0,39.98-12.81,79.9-31.15,97.06-5.68,5.32-11.34,7.83-16.85,7.46-10.14-.68-18.05,1.72-23.5,7.13-10.08,10.01-9.08,26.83-8.02,44.64.2,3.29.4,6.7.52,9.99.29,7.89.46,16.37.47,25-3.49-.44-6.61-.96-9.27-1.58ZM4140.79,975.64c-8.84.31-22.17-5.22-33.97-14.14-12.1-9.14-20.09-19.89-20.86-28.04-.1-1.04-.03-1.65.04-1.96,1.9-.53,8.61.43,19.04,6.86,13.18,8.13,26.98,21.52,35.75,37.27ZM4166,1272.96v5.21c0,69.06-20.86,120.83-54.44,135.1-21.08,8.96-30.87,6.67-31.76,5.23-.4-.76.22-7.09,12.81-18.84,30.79-28.74,25.28-48.38,20.42-65.72-.43-1.54-.87-3.1-1.28-4.67-.56-2.11-2.25-8.54-8.04-11.05-1.54-.66-3.05-.94-4.53-.94-4.05,0-7.84,2.06-11.06,3.8-7.12,3.86-10.01,4.84-14.48.63-8.27-7.79-6.74-12.88-.64-27.8,2.21-5.42,4.72-11.56,6.72-18.72,4.39-15.67,6.05-38.85,6.56-59.53,16.39.85,35.17.65,50.17,0,8.82-.39,17.03-.94,24.34-1.64,5.25,12.77,5.23,32.42,5.21,58.94ZM3984.34,2332.67c1.5,9.61,2.08,15.87,2.23,19.93-13.71-14.02-14.8-17.87-20.56-38.35-2.29-8.14-5.43-19.3-10.38-34.42-9.4-28.72-19.8-45.94-34.77-57.59-15.46-12.03-35.27-17.25-57.68-22.39-6.07-1.39-11.8-2.07-17.05-2.07-7.76,0-14.46,1.49-19.63,4.37,1.19-5.66,2.33-11.17,3.37-16.57,4.79-24.83,16.42-41.4,31.89-45.46,14.09-3.69,30.14,3.55,44.03,19.9,29.18,34.33,54.32,82.91,68.5,120.12.19.9.37,1.81.56,2.72,3.55,17.33,7.22,35.25,9.5,49.8ZM3659.32,1139.07c.93-14.29,2.53-28.65,4.03-42.07,1.54-13.77,2.99-26.77,3.64-38.42l.27-4.79c2.28-41.33,4.08-73.98,15.97-81.07,1.82-1.09,4.09-1.63,6.81-1.63,5.17,0,11.96,1.96,20.28,5.87,50.98,23.93,193.46,19.63,239.12,7.46,9.82-2.62,17.66-1.58,23.96,3.18,1.53,1.16,2.99,2.54,4.37,4.14-31.84,31.5-110.99,34.44-179.94,22.05-14.57-2.62-26.95-5.21-37.86-7.5-31.71-6.65-49.18-10.31-61.39-1.27-10.83,8.02-14.17,23.93-16.55,50.49-2.96,33.05-12.44,57.28-20.06,76.75-.91,2.33-1.8,4.6-2.65,6.82ZM3997,1083.28c1.08,68-38.64,106.09-121.43,116.44-45.11,5.64-95.69,5.78-138.76.38-50.67-6.35-67.45-17.48-69.25-22.47-3.46-9.62,1.51-22.33,8.39-39.91,7.96-20.36,17.88-45.7,21.03-80.88,1.84-20.56,4.34-35.19,10.53-39.77,2.33-1.73,5.75-2.46,10.31-2.46,8.73,0,21.63,2.71,39.08,6.36,11.02,2.31,23.5,4.93,38.29,7.59,73.19,13.16,152.95,9.35,190.37-23.69,7.05,16.7,10.89,42.93,11.46,78.43ZM4010.25,635.19c-.12,7.06-.25,14.37-.25,21.98,0,43.03-7.84,70.59-18.01,88.22-2.73-24.44-4.76-46.27-4.99-62.33-.42-29.28-5.97-50.89-31.72-61.17-21.2-8.47-54.31-8.86-109.17-9.51-14.11-.17-30.1-.36-47.46-.71-8.73-.18-16.88-.37-24.47-.56-15.45-.37-28.67-.69-40.04-.69-31.41,0-48.62,2.43-59.5,12.87-13.5,12.95-13.89,35.59-14.6,76.69-.12,6.8-.24,14.1-.44,21.98-1.59-1.34-3.08-2.75-4.47-4.24-17.84-19.2-19.37-52.26-16.16-96.01,2.64-36.06,21.9-58.01,62.46-71.16,39.92-12.95,97.42-16.83,177.25-18.89,61.46-1.59,98.17,5.69,115.53,22.91,17.12,16.98,16.64,45.06,16.02,80.61ZM3978.83,762.32c-.18.17-.37.34-.55.51.12-.41.23-.82.33-1.23.03-.13.06-.26.09-.38.04.37.09.73.13,1.1ZM3938.85,774.95c.11-1.54.22-3.08.33-4.61.47-6.59.95-13.43,1.43-20.32,11.62.02,19.85.36,22.38,1.21.69.25,2.07,2.71,1.07,6.8-1.88,7.67-10.22,14.5-25.19,16.93ZM3941.82,789.65c-1.63,2.41-3.13,4.97-4.51,7.6.15-2.29.31-4.63.47-7.02,1.39-.17,2.73-.36,4.04-.59ZM3941.6,735.03c.74-11.41,1.38-22.5,1.79-32.28,1.41-33.74-.43-38.92-2.97-42.19-2-2.57-4.27-5.49-35.55-8.55-18.04-1.77-40.84-3.06-64.22-3.65-28.13-.71-96.26-1.26-121.24,8.95-11.18,4.57-12.89,11.07-12.36,15.71.87,7.57,2.09,33.44,2.76,65.81-14.2-1.23-25.91-3.85-35.43-7.95.33-11.27.51-21.42.67-30.65.64-37.08,1-57.5,9.99-66.13,10.32-9.9,36.54-9.27,88.79-8.01,7.61.18,15.77.38,24.52.56,17.42.36,33.45.54,47.59.71,51.29.61,85.17,1.01,103.78,8.44,14.1,5.63,21.82,14.86,22.29,47.46.23,16.12,2.18,37.53,4.82,61.45-1.96-3.53-4.97-6.25-8.8-7.62-3.84-1.37-12.51-1.98-26.42-2.07ZM3856.58,736.95c-40.46,1.27-86.32,2.71-126.08,2.71-1.92,0-3.81-.02-5.66-.06-.64-31.63-1.81-57.34-2.74-66.9,1.88-1.31,9.08-4.91,33.4-7.33,18.07-1.8,41.98-2.59,69.14-2.3,50.86.55,93.43,4.62,103.74,7.46,1.35,8.72-.06,37.1-1.82,64.57-17.62.23-40.81.93-69.98,1.85ZM3925.56,750.13c-.47,6.81-.93,13.31-1.34,19.15-.16,2.25-.31,4.44-.46,6.58-4.09-.11-8.5-.47-13.22-1.12-20.27-2.81-50.36-4.22-85.21-5.86-31.18-1.47-67.43-3.17-100.13-6.37-.03-2.65-.06-5.28-.1-7.88,1.78.03,3.58.05,5.41.05,40,0,85.98-1.44,126.55-2.72,23.49-.74,48.56-1.53,68.51-1.81ZM3710.28,776.05c.04,9.41.02,18.98-.08,28.49-1.03,101.07-9.68,119.3-11.88,122.31-1.09,0-2.4-.38-4.09-1.86-5.74-5.05-23.22-30.79-21.02-154.62,11.24,2.28,23.74,4.13,37.07,5.68ZM3673.57,755.2c.08-2.76.17-5.57.27-8.43,10.26,3.66,22.27,6.01,36.24,7.13.03,2.31.06,4.64.09,6.99-13.3-1.56-25.71-3.43-36.59-5.69ZM3659.08,739.91c-.02.65-.05,1.31-.07,1.97-.12,3.19-.23,6.41-.33,9.66-10.39-3.03-18.42-6.62-23.12-10.92-11.53-10.54-13.71-35.06-11.74-63.9,2.29,21.01,8.25,38.2,20.33,51.2,4.28,4.61,9.23,8.59,14.92,11.98ZM3706.87,36.97c21.36-16.22,43.53-24.23,59.32-21.42,8.76,1.56,17.83,5.95,27.08,12.32-15.41-4.44-32.69-1.02-50.23,10.24-1.23.79-2.47,1.62-3.69,2.48-5.17-1.31-10.51-2.27-16.01-2.88-3.19-.35-6.44-.53-9.75-.53-2.42,0-4.87.09-7.35.28.21-.16.43-.33.64-.49ZM3792.24,97.78c15.92,27.4,18.89,63.73,7.38,90.42-9.53,22.09-32.95,28.33-51.7,26.81-23.87-1.94-51.1-16.5-58.14-44.66-7.75-31.01,18.51-85.77,52.65-113.31,26.09,8.53,41.28,26.06,49.81,40.74ZM3685.61,56.37c12.62-3.64,24.84-4.99,36.06-3.75.93.1,1.84.22,2.75.34-13.29,12.74-25.44,29.21-34.8,47.5-14,27.33-19.24,54.12-14.39,73.52,8.84,35.37,42.27,53.59,71.47,55.97,2.37.19,4.71.29,7.01.29,27.39,0,49.9-13.44,59.68-36.11,13.51-31.32,10.3-72.1-8.18-103.9-11.37-19.56-27.72-34.31-47.57-43.28,16.77-8.68,31.61-8,44.18,2.06,16.57,13.25,32.14,37.22,42.71,65.76,10.82,29.2,15.22,60.37,12.07,85.51-2.49,19.91-10.97,46.15-37.2,58.04-36.3,16.46-88.14,7.89-129-21.31-33.85-24.2-51.51-56.32-48.44-88.14,3.61-37.44,22.5-69.7,43.64-92.52ZM3556.79,219.42c-6.65-27.78,8.74-67.15,40.17-102.75,18.25-20.68,39.02-37.22,59.85-48.37-1.87,2.73-3.68,5.51-5.41,8.34-13.62,22.28-22.05,46.76-24.37,70.82-3.59,37.28,16.33,74.38,54.65,101.78,29.51,21.1,64.5,32.3,96.65,32.3,16.94,0,33.11-3.11,47.26-9.53,25.76-11.68,41.63-35.83,45.89-69.83,3.49-27.86-1.09-60.74-12.89-92.59-4.98-13.45-11.05-26.02-17.85-37.16,7.1,7.86,14.2,16.01,21.24,24.1,12.92,14.85,25.13,28.87,37.21,40.95,27.21,27.21,42.61,62.25,41.21,93.74-1.19,26.66-13.88,50.28-37.71,70.2-49.49,41.36-142.12,41.21-186.63,41.14-14.73-.02-21.4.02-25.34.98-65.83-20.73-120.96-69.98-133.92-124.11ZM3436.95,788.05c8.98-75.37,22.5-143.06,39.08-195.76,16.93-53.81,36.7-90.9,57.16-107.27,37.73-30.18,106.98-60.35,136.55-73.23,5.04-2.2,8.69-3.78,10.94-4.83,12.61-5.88,13.24-22.5,13.74-35.86.12-3.24.29-7.59.71-10.67,12.42,3.42,25.02,5.85,37.58,7.19,88.43,9.47,150.13-4.27,179.04-13.3,14.99-4.69,34.38-4.94,50.6-.66,10.16,2.68,27.96,9.59,33.01,25.74,2.46,7.89,4.91,16.53,2.74,19.33-6.2,7.97-54.32,5.35-80.17,3.95-94.22-5.12-200.22-1.82-215.8-1-7.9.42-8.16,6.87-8.16,7.6,0,.68.17,6.63,7.19,7.65.59.09,1.47.19,2.61.29,1.93.18,4.76.4,8.67.67,7.34.51,17.99,1.17,30.32,1.94,62.28,3.87,191.89,11.93,213.83,21.24,29.09,12.34,45.36,72.64,44.44,94.78-.08,1.81,0,3.4.21,4.8-21.53-18.19-59.84-25.61-122.91-23.99-118.71,3.06-205.22,9.59-239.01,57.77,2.91-16.15,5.43-31.16,6.67-43.53,3.22-32.18-11.22-59.63-35.92-68.31-19.31-6.79-48.06-1.56-70.83,33.48-27.39,42.14-9.27,105.21,6.71,160.86,8.27,28.79,16.09,55.99,17.08,77.57.99,21.47-.61,68.35-2.86,122.8-5.37,23.05-9.75,46.31-13.04,65.59-20.39,119.56-28.39,199.68-31.05,251.5-13.87-10.43-62.59-26.68-77.03-27.72-.43-.03-.85-.05-1.28-.05-2.96,0-5.94.73-8.83,2.1-3.79-2.93-6.36-5.81-7.53-8.53-10.63-24.8-3.07-195.94,15.55-352.16ZM3547.55,1441.44c-2.63.46-11.97-1.08-26.55-8.99-24.59-13.33-56.16-40.72-64.21-74.05-11.46-47.49-7.3-85.78-3.81-95.71.22,0,.45,0,.68,0,42.11.49,52.87-.67,57.2-2.83,3.13-1.57,4.88-4.75,4.46-8.1-.77-6.12-6.89-7.67-13.98-9.47-5.16-1.31-12.01-2.79-19.27-4.36-.39-.08-.79-.17-1.19-.26,7.71.18,15.26.51,21.05.96,7.5.58,9-5,9.22-6.12,1.34-6.77-5.02-9-9.67-10.63-3.16-1.11-7.62-2.56-12.78-4.24-11.4-3.71-27.01-8.8-40.28-13.98-21.14-8.25-24.33-12.16-24.61-12.56-2.71-4.22-1.52-12.36,2.9-19.82.94-1.58,1.93-2.96,2.93-4.16,7.53,4.29,16.82,8.37,27.84,12.21,21.61,7.53,43.73,11.8,52.61,11.57,2.05-.05,3.82-.37,5.3-.96-.99,28.5-.22,46.55.64,56.84,3.01,36.13,14.82,61.5,24.31,81.88,3.47,7.45,6.74,14.48,9.1,21.04,4.3,11.95-1.02,20.56-6.65,29.68-4.1,6.63-8.33,13.5-7.78,21.31.47,6.6,3.85,13.71,7.11,20.59,3.52,7.43,7.88,16.6,5.42,20.15ZM3555.68,1414.86c-2.67-5.63-5.43-11.45-5.7-15.23-.21-2.99,2.6-7.54,5.58-12.36.93-1.5,1.91-3.09,2.88-4.76.61,13.84,1.27,28.27,1.94,42.99-1.39-3.67-3.1-7.26-4.7-10.63ZM3557.07,1250.31c-1.68,2.8-3.26,5.44-1.55,59.01.18,5.58.39,11.52.62,17.75-.72-1.56-1.46-3.14-2.2-4.74-9.46-20.31-20.18-43.33-22.96-76.79-2.19-26.26-3.79-104.51,24.68-282.37-3.35,81.68-5.88,161.71-2.62,196.69,4.19,44.88,15.26,70.52,30.41,70.52.15,0,.29,0,.44,0,10.2-.33,16.6-11.55,17.11-30,.37-13.23-1.87-28.53-4.03-43.32-1.54-10.49-2.99-20.41-3.28-28.29-.34-9.16,1.07-11.65,1.42-12.13.12-.02.35-.03.72,0,3.36.31,7.54,1.83,11.58,3.29,8.71,3.17,19.56,7.11,28.47.27,11.24-8.63,14.16-31.13,10.09-77.68-4.4-50.32-8.25-111.52-11.65-165.52-3.54-56.2-6.33-100.59-8.47-111.3-2.07-10.36-8.82-13.97-14.38-13.89-12.83.18-24.29,19-34.07,45.49.86-27.75,1.2-50.2.59-63.47-1.08-23.34-9.13-51.36-17.65-81.02-15.1-52.57-32.22-112.14-8.56-148.54,15.32-23.56,35.23-33.85,53.28-27.5,18.05,6.34,28.48,27.51,25.97,52.67-1.52,15.24-5.17,35.13-9.03,56.18-11.99,65.43-25.57,139.58,3.43,166.1,6.89,6.3,18.3,11.25,32.85,15.18-1.39,70.64,2.77,148.89,26.05,169.37,5.13,4.51,11.15,6.35,17.4,5.31,9.98-1.66,15.3-14.42,18.95-45.49,2.45-20.8,3.94-49.25,4.44-84.55.16-11.27.21-22.69.17-33.88,31.45,3.02,66.29,4.66,99.32,6.22,33.05,1.56,64.26,3.02,83.86,5.74,5.05.7,9.79,1.1,14.24,1.24-1.55,22.79-2.3,37.38-1.66,43.16.25,2.28,1.03,9.23,7.67,9.93,1.54.16,6.24.66,9.39-7.25.75-1.88,1.59-4.42,2.57-7.37,3.96-11.91,12.18-36.7,24.36-41.08,4.69-1.69,10.18-4.29,15.88-8.28.31,2.57.62,5.16.93,7.75,8.71,72.56,18.58,154.8,7.58,185.97-.71,2.02-1.56,3.97-2.54,5.85-1.42-1.42-2.9-2.72-4.45-3.89-10.09-7.63-22.5-9.54-36.87-5.71-42.82,11.42-181.46,15.72-228.88-6.54-17.99-8.44-31.07-9.57-41.16-3.54-18.73,11.19-20.53,43.78-23.25,93.12l-.26,4.79c-.62,11.23-2.05,24.04-3.57,37.59-5.9,52.84-12.59,112.74,18.16,144.77,15.08,15.71,37.76,22.62,67.43,20.54,33.17-2.33,72.87-2.04,112.6.7-9.2,2.03-18.94,3.85-29.24,5.4-122.64,18.54-195-4.78-229.76-15.99-6.67-2.15-11.95-3.85-15.95-4.69-2.65-.55-10.72-2.23-14.6,4.24ZM3582.12,1159.23c2.07,14.16,4.21,28.8,3.88,40.73-.24,8.46-1.89,12.93-2.95,14.77-3.37-3.32-11.48-17.56-15.09-56.26-3.95-42.27.87-153.97,5.12-252.52.69-15.95,1.37-31.71,2-46.9,17.12-73.07,31.76-88.62,35.75-91.61.11.32.22.72.31,1.19,1.94,9.72,4.85,55.86,8.21,109.3,3.4,54.08,7.26,115.38,11.67,165.88,4.52,51.76-1.49,62.33-4.28,64.48-2.39,1.83-8.4-.35-14.21-2.47-4.94-1.8-10.05-3.65-15.35-4.14-6.54-.59-10.62,2.14-12.89,4.53-8.59,9.07-5.75,28.46-2.16,53ZM3608.89,1917.88c-3.03-17.44-5.67-32.22-8-45.26-13.9-77.65-16.03-89.59-16.88-204.52-.47-63.81-4.72-157.13-8.46-239.47-3.31-72.8-6.73-147.85-5.57-167.58,3.32.84,8.24,2.42,13.05,3.97,24.4,7.87,72.94,23.52,147.42,23.52,26.43,0,56.15-1.97,89.19-6.97,26.54-4.01,49.51-9.69,69.39-16.36,28.05,3.23,48.31,7.03,60.21,10.15-18.69,5.77-50.51,15.98-80.28,28.17-64.25,26.32-75.14,43.58-77.75,54.27-1.33,5.47-1.18,13.68,7.08,21.71,21.83,21.24,28.74,45.53,42.5,93.92,8.25,29.01,18.51,65.11,35.67,113.22,13.59,38.1,29.54,62.91,44.83,79.04-16.76,2.18-32.08,5.65-42.81,9.87-7.39,2.9-12.9,6.26-16.47,10.03-.88-6.74-1.9-13.9-3.06-21.58l-.48-3.18c-6.98-45.88-16.54-108.71-28.13-160.87-18.95-85.25-34.27-100.33-45.49-103.96-8.35-2.69-14.41-.17-18.03,2.43-19.22,13.79-20.86,65.68-22.28,163.89-.15,10.27-.3,20.85-.49,31.69-.71,41.04-3.53,69.11-8.77,86.41-15.83-3.88-40.04-.1-54.19,2.79-19.81,4.04-43.64,11.2-52.23,18.07-6.59,5.27-5.89,10.39-4.88,12.97,3.76,9.69,19.51,10.16,71.73,6.72l5.32-.35c12.79-.83,25.94-1.67,36.19-12.42.69,29.65,3.34,111.37,5.92,190.77,2.9,89.43,5.91,181.91,5.91,194.16,0,2.9-.57,4.79-1.7,5.62-5.93,4.37-28.47-2.66-44.93-7.8-3.21-1-6.46-2.01-9.7-3-21.48-6.51-34.98,2.22-38.44,13.08-.37,1.15-.62,2.33-.77,3.55-3.34-14.07-7.46-29.23-11.94-45.76-10.12-37.33-22.71-83.79-32.64-140.97ZM3865.22,1715.23c5.47,5.4,14.28,10.69,28.14,15.08,19.47,6.16,41.87,8.35,55.14,8.35,14.55,0,25.4,4.42,33.18,13.5,10.17,11.88,15.32,32.07,15.32,60,0,60.86-20.4,186.5-53.74,209.15-4.96,3.37-9.73,3.97-15,1.88-36.53-14.48-63.31,2.35-77.73,13.75.59-11.49,1.62-29.2,2.87-50.68,1.88-32.31,4.22-72.52,6.6-117.7,1.22-23.15,2.61-41.46,3.83-57.62,2.67-35.28,4.49-59.23,1.4-95.71ZM3729.07,1694.41c-6.28,9.36-14.56,10.34-29.05,11.27l-5.34.35c-11.89.78-32.73,2.16-46.33,1.89,20.28-7.86,61.5-16.77,80.73-13.51ZM3742.97,2115.03c-2.68.64-5.49,1.39-8.42,2.17-15.43,4.1-34.63,9.2-50.68,3.85-11.89-3.96-16.78-10.91-15.34-15.43.9-2.83,4.46-4.87,10.12-4.87,2.75,0,6,.48,9.67,1.6,3.2.97,6.41,1.97,9.58,2.96,17.36,5.42,33.07,10.32,45.06,9.73ZM3728.61,2336.86c-21.08,2.52-34.21-5.02-34.72-7.98-3.69-21.21,3.97-75.47,22.11-106.97,4.66-8.09,9.28-9.35,12.07-9.35.84,0,1.51.12,1.97.19,13.61,2.32,31.96,27.57,39.08,65.79,2.32,12.42,3.41,22.81,3.26,31.41-13.25,21.08-34.88,25.85-43.77,26.92ZM3783.17,2272.2c-8.34-40.23-28.86-70.53-50.6-74.24-6.84-1.16-19.76-.58-29.57,16.46-20.43,35.48-27.91,93.93-23.89,117.03.87,5,4,9.11,8.58,12.33-5.55-2.55-10.73-5.87-15.46-9.94-14.85-12.78-23.82-31.66-25.25-53.18-1.45-21.83,2.2-37.12,6.44-54.82,4.02-16.8,8.58-35.84,8.58-62.68,0-2.85-.11-5.75-.28-8.7,0-.26-.01-.51-.04-.77-.68-10.92-2.47-22.49-5.06-34.96,3.88,6.66,11.24,12.78,22.5,16.54,20.31,6.77,42.83.79,59.28-3.58,6.57-1.75,16.38-4.35,19.37-3.65,7.42,10.21,18.49,26.33,25.24,128.61.37,5.55.4,10.73.15,15.54ZM3809.38,2210.51c-4.27,19.94-8.59,40.12-11.1,58.89.12-4.38.02-8.95-.29-13.74-7.11-107.62-19.35-124.46-28.29-136.75l-.12-.17c-3.09-4.25-7.48-5.79-12.89-5.79-1.58,0-3.25.13-5,.36,1.62-.63,3.14-1.44,4.52-2.46,5.18-3.81,7.81-9.77,7.81-17.7,0-12.5-2.87-100.98-5.92-194.65-2.99-92.1-6.08-187.34-6.08-200.35,0-3.82-1.19-7.25-3.45-10.09,6.46-18.8,9.66-48.15,10.45-93.78.19-10.85.34-21.45.49-31.73.6-41.69,1.12-77.7,3.6-104.97,3.06-33.64,8.44-44.1,12.42-46.95.92-.66,2.13-1.17,4.68-.34,3.74,1.21,17.35,11.47,35.46,92.93,11.48,51.66,21,114.21,27.95,159.87l.48,3.18c10.45,68.66,8.55,93.68,4.78,143.52-1.23,16.24-2.62,34.64-3.85,57.96-2.38,45.14-4.71,85.33-6.59,117.62-2.06,35.4-3.42,58.79-3.42,64.77,0,5.43,3.4,7.6,4.86,8.28,5.31,2.47,9.54-1.08,14.9-5.57,12.07-10.13,34.55-28.98,67.98-15.73,9.89,3.92,19.9,2.73,28.95-3.42,18.66-12.68,34.13-46.76,45.96-101.3,9.91-45.68,14.35-93.32,14.35-120.26,0-32.05-6.19-54.87-18.93-69.75-10.64-12.44-25.64-18.75-44.57-18.75-30.8,0-76.5-11.13-76.5-26.49.11-.72,2.68-4.21,13.35-8.17,12.36-4.58,31.27-8.18,50.98-9.81,18.04,13.46,33.5,15.91,40.6,16.24,11.93.54,21.29-3.34,24.45-10.14,2.07-4.46,1.18-9.4-2.38-13.23-8.11-8.74-33.58-9.44-53.5-8.49-1.46.07-2.91.15-4.37.24-16-13.46-34.77-37.88-50.56-82.17-16.99-47.64-27.18-83.49-35.37-112.28-14.03-49.35-21.76-76.54-46.47-100.57-3.4-3.31-3.4-5.6-2.96-7.42,1.66-6.81,17.96-32.33,158.09-74.78l.81-.25c10.33-3.13,10.34-9.47,9.87-12.05-1.05-5.71-6.09-10.02-28.72-15.17-7.94-1.81-17.34-3.55-27.87-5.17,53.44-23.99,78.13-54.45,90-69.54,3.27,22.68,8.77,80.57,13.82,154.89,4.19,61.79,11.23,182.26,11.23,294.87,0,136.16-17.61,241.92-31.77,326.9-5.98,35.89-11.62,69.8-15.19,101.26-2.3,20.3-5.55,36.28-9.72,47.88-7.84-15.98-21.05-29.32-40.02-40.49-36-21.21-60.84-15.05-75.34-6.16-25.82,15.85-34.63,48.25-33.95,59.09.37,5.91,3.32,8.35,5.73,9.35,5.63,2.34,10.03-1.5,15.13-5.95,13.32-11.65,28.18-21.69,50.24-5.79,23.55,16.98,47.9,34.54,68.88,25.25,1-.44,1.98-.94,2.94-1.49.95,13.51-.88,27.63-2.75,42.05-1.63,12.52-3.18,24.48-2.77,35.91-13.3-25.33-29.43-50.77-47.19-71.66-17.78-20.92-39.39-29.91-59.27-24.69-21.28,5.59-36.88,26.41-42.81,57.13-1.71,8.83-3.67,18.03-5.76,27.77ZM3966.77,1678.47c6.98.34,12.16,1.05,15.68,1.83-2.92.35-6.9.29-11.85-.81-1.14-.25-2.42-.59-3.82-1.02ZM3967.02,2127.22c-1.92,2.09-3.95,3.61-6.1,4.56-13.11,5.81-34.85-9.87-54.04-23.7-11.27-8.12-21.54-11.08-30.62-11.08-13.47,0-24.31,6.53-31.85,12.38,3.56-10.69,11.21-24.95,24.4-33.05,15.98-9.81,36.13-7.69,59.88,6.3,22.59,13.31,33.56,28.37,38.33,44.59ZM3820.41,2230.83c6.12,6.93,17.29,10.2,30.86,8.8,33.3-3.42,55.6,12.29,68.16,48.03,1.91,5.42,3.01,11.01,3.54,16.46-1.81-6.02-4.16-12.12-7.16-17.99-11.48-22.48-29.47-36.43-52.02-40.35-3.15-.55-6.21-.81-9.18-.81-16.94,0-30.83,8.47-40.5,20.28,1.68-11.31,3.94-23.01,6.3-34.42ZM3816.9,2290.26c5.37-14.62,18.23-30.29,37.69-30.29,2.13,0,4.34.19,6.63.58,44.39,7.72,52.46,61.21,51.79,79.33-.07,1.78-.16,4.19.19,6.61-23.74-11.8-50.08-19.67-70.5-25.78-12.07-3.61-22.49-6.72-26.4-9.02-2.15-1.26-3.78-9.51.6-21.44ZM3932.33,2442.37c-6.51,5.67-11.66,10.15-9.15,16.49.15.39.33.75.51,1.08-49.29.24-73.7-3.46-79.81-38.09-3.35-18.98-2.35-31.21-1.55-41.03,1.47-18.01,1.29-28.18-19.15-44.52-2.65-2.12-4.79-4.85-6.48-8.09,5.56,2.06,12.86,4.24,21.7,6.88,34.26,10.24,86.02,25.71,109.16,55.66,16.37,21.18,2.13,36.5-15.24,51.62ZM3950.29,2446.32c13.94-13.59,30.88-36.61,9.15-64.74-8.33-10.77-19.55-19.77-32.14-27.38.31-.22.62-.47.91-.74,7.85-7.12,15.52-41.91,5.37-70.79-14.98-42.64-43.18-62.14-83.84-57.97-10.42,1.07-16.99-1.66-18.69-4.65-.38-.67-.65-1.52.26-2.74,2.21-2.97,10.71-6.92,28.52-2.84,46.95,10.76,64.87,19.07,81.55,70.02,4.85,14.82,7.82,25.36,10.2,33.82,6.64,23.58,8.7,29.23,27.62,48.15,5.69,5.69,11.03,7.25,15.87,4.64,2.89-1.55,4.82-4.03,5.81-8.22,6.42,21.19,11.66,39.75,12.1,45.57-1.97,3.47-12.87,12.87-31.6,23.47-11.21,6.35-22.07,11.34-31.09,14.39ZM4016.05,2429.26c-.17,1.23-4.68,30.03-58.51,30.4,14.47-5.24,28.57-13.11,33.98-16.27,11.35-6.62,20.07-12.67,26.14-18.11-.9,1.08-1.49,2.44-1.61,3.98Z"/>
  </g>
</svg>