<?xml version="1.0" encoding="UTF-8"?>
<svg id="Layer_2" xmlns="http://www.w3.org/2000/svg" viewBox="0 0 738.21 740.19">
  <defs>
    <style>
      .cls-1 {
        fill: #3f3f3f;
      }
    </style>
  </defs>
  <g id="_ò_x2021__xF8FF__x5F_1" data-name="ò_x2021__xF8FF__x5F_1">
    <g>
      <g>
        <path class="cls-1" d="M653.77,363.13l-1.09-.36s-.05-.02-.07-.03l-207.51-69.01-73.4-208.38c-.71-2.03-2.65-3.4-4.81-3.38-2.14.02-4.06,1.41-4.73,3.45l-.33.99c-.02.07-.06.12-.08.19l-68.95,207.4-208.42,73.51c-2.03.71-3.39,2.65-3.37,4.81.02,2.14,1.43,4.06,3.45,4.73l1.09.36s.05.02.07.03l207.41,68.92,73.48,208.46c.73,2.05,2.65,3.38,4.81,3.38,2.18-.04,4.06-1.43,4.75-3.45l.35-1.07s.04-.09.06-.14l68.9-207.44,208.46-73.45c2.05-.71,3.4-2.63,3.36-4.81,0-2.16-1.39-4.05-3.44-4.73ZM364.7,357.57l-60.82-64.3c-.05-.05-.12-.08-.17-.14l58.13-174.78,2.86,239.21ZM373.47,382.54l60.86,64.32s.09.07.13.11l-58.1,174.9-2.9-239.32ZM381.6,365.72l64.25-60.82c.07-.07.11-.16.18-.23l174.87,58.17-239.3,2.88ZM356.62,374.48l-64.32,60.82s-.08.11-.12.15l-174.88-58.11,239.32-2.86Z"/>
        <g>
          <path class="cls-1" d="M123.46,313.34c-.43,0-.86-.04-1.3-.12-3.81-.71-6.32-4.38-5.6-8.19,17.66-94.22,92.75-169.82,186.84-188.11,3.8-.73,7.49,1.74,8.23,5.55.74,3.8-1.74,7.49-5.55,8.23-88.49,17.2-159.11,88.3-175.72,176.92-.63,3.37-3.58,5.72-6.89,5.72Z"/>
          <path class="cls-1" d="M433.49,623.38c-3.29,0-6.23-2.33-6.88-5.68-.74-3.8,1.74-7.49,5.55-8.23,88.49-17.2,159.11-88.3,175.72-176.92.71-3.81,4.39-6.32,8.19-5.6,3.81.71,6.32,4.38,5.6,8.19-17.66,94.22-92.75,169.82-186.84,188.1-.45.09-.9.13-1.35.13Z"/>
        </g>
        <g>
          <path class="cls-1" d="M615.38,312.72c-3.29,0-6.23-2.33-6.88-5.68-17.2-88.49-88.3-159.11-176.92-175.72-3.81-.71-6.32-4.38-5.6-8.19.71-3.81,4.4-6.32,8.19-5.6,94.22,17.66,169.82,92.75,188.11,186.84.74,3.8-1.74,7.49-5.55,8.23-.45.09-.9.13-1.35.13Z"/>
          <path class="cls-1" d="M305.35,622.77c-.43,0-.86-.04-1.3-.12-94.22-17.66-169.82-92.75-188.1-186.84-.74-3.8,1.74-7.49,5.55-8.23,3.81-.73,7.49,1.74,8.23,5.55,17.2,88.49,88.3,159.11,176.92,175.72,3.81.71,6.32,4.38,5.6,8.19-.63,3.37-3.58,5.72-6.89,5.72Z"/>
        </g>
      </g>
      <g>
        <path class="cls-1" d="M360.87,6.36l20.41,30.88V6.08c0-2.03.43-3.54,1.3-4.56.87-1.01,2.04-1.52,3.52-1.52s2.73.51,3.61,1.52c.88,1.01,1.32,2.53,1.32,4.56v41.21c0,4.6-1.91,6.9-5.72,6.9-.95,0-1.81-.14-2.57-.41-.76-.27-1.48-.71-2.14-1.3-.67-.6-1.29-1.29-1.86-2.09-.57-.8-1.14-1.61-1.72-2.45l-19.91-30.52v30.7c0,2-.46,3.51-1.39,4.54-.93,1.02-2.12,1.54-3.57,1.54s-2.7-.52-3.61-1.55c-.91-1.04-1.36-2.54-1.36-4.52V7.68c0-1.72.19-3.06.57-4.04.45-1.07,1.2-1.95,2.25-2.63s2.18-1.02,3.4-1.02c.95,0,1.77.15,2.45.46.68.31,1.27.73,1.79,1.25.51.52,1.04,1.2,1.57,2.04s1.09,1.7,1.66,2.61Z"/>
        <path class="cls-1" d="M389.92,723.58c0,3.17-.82,6.02-2.45,8.54-1.63,2.53-4.02,4.5-7.17,5.93-3.14,1.43-6.87,2.14-11.19,2.14-5.17,0-9.43-.98-12.79-2.93-2.38-1.41-4.32-3.28-5.81-5.63-1.49-2.35-2.23-4.63-2.23-6.84,0-1.29.45-2.39,1.34-3.31.89-.92,2.03-1.38,3.41-1.38,1.12,0,2.07.36,2.84,1.07.77.71,1.44,1.77,1.98,3.18.67,1.67,1.39,3.06,2.16,4.18.77,1.12,1.86,2.04,3.27,2.77,1.41.73,3.25,1.09,5.54,1.09,3.14,0,5.7-.73,7.67-2.2,1.97-1.47,2.95-3.29,2.95-5.49,0-1.74-.53-3.15-1.59-4.24-1.06-1.08-2.43-1.91-4.11-2.48s-3.93-1.18-6.74-1.82c-3.76-.88-6.92-1.91-9.45-3.09-2.54-1.18-4.55-2.79-6.04-4.82s-2.23-4.57-2.23-7.59.79-5.44,2.36-7.68c1.57-2.24,3.85-3.96,6.83-5.16,2.98-1.2,6.48-1.8,10.51-1.8,3.22,0,6,.4,8.34,1.2,2.35.8,4.29,1.86,5.84,3.18,1.55,1.32,2.68,2.71,3.4,4.16.71,1.45,1.07,2.87,1.07,4.25,0,1.26-.45,2.4-1.34,3.41-.89,1.01-2.01,1.52-3.34,1.52-1.22,0-2.14-.3-2.77-.91-.63-.61-1.32-1.6-2.05-2.98-.95-1.98-2.1-3.52-3.43-4.63-1.33-1.11-3.48-1.66-6.43-1.66-2.74,0-4.95.6-6.63,1.8s-2.52,2.65-2.52,4.34c0,1.05.29,1.95.86,2.72s1.36,1.42,2.36,1.97c1,.55,2.01.98,3.04,1.29s2.72.76,5.07,1.36c2.95.69,5.63,1.45,8.02,2.29s4.43,1.85,6.11,3.04,2.99,2.7,3.93,4.52c.94,1.82,1.41,4.06,1.41,6.7Z"/>
      </g>
      <g>
        <path class="cls-1" d="M41.56,388.04l-8.47-31.41-8.58,31.41c-.67,2.38-1.2,4.09-1.59,5.13-.39,1.04-1.08,1.97-2.06,2.79-.98.82-2.28,1.23-3.9,1.23-1.31,0-2.39-.24-3.23-.73s-1.53-1.18-2.06-2.07c-.52-.89-.95-1.95-1.29-3.18-.33-1.23-.63-2.36-.89-3.41L.79,352.51c-.52-2.05-.79-3.61-.79-4.68,0-1.36.48-2.5,1.43-3.43.95-.93,2.13-1.39,3.54-1.39,1.93,0,3.23.62,3.9,1.86.67,1.24,1.25,3.04,1.75,5.4l6.86,30.59,7.68-28.63c.57-2.19,1.08-3.86,1.54-5,.45-1.14,1.19-2.13,2.22-2.97s2.42-1.25,4.18-1.25,3.17.43,4.16,1.3c.99.87,1.67,1.82,2.05,2.84.38,1.02.89,2.72,1.54,5.07l7.76,28.63,6.86-30.59c.33-1.6.65-2.85.95-3.75.3-.91.81-1.72,1.54-2.43.73-.71,1.78-1.07,3.16-1.07s2.56.46,3.52,1.38c.96.92,1.45,2.07,1.45,3.45,0,.98-.26,2.54-.79,4.68l-8.72,35.27c-.6,2.38-1.09,4.13-1.48,5.24s-1.06,2.08-2,2.91-2.27,1.25-3.98,1.25c-1.62,0-2.92-.41-3.9-1.22-.98-.81-1.66-1.72-2.04-2.73s-.92-2.75-1.61-5.2Z"/>
        <path class="cls-1" d="M732.35,352.09h-23.91v12.87h22.01c1.62,0,2.83.36,3.63,1.09.8.73,1.2,1.69,1.2,2.88s-.39,2.16-1.18,2.91c-.79.75-2,1.13-3.65,1.13h-22.01v14.9h24.73c1.67,0,2.92.39,3.77,1.16.85.77,1.27,1.8,1.27,3.09s-.42,2.25-1.27,3.02c-.85.77-2.1,1.16-3.77,1.16h-28.84c-2.31,0-3.97-.51-4.99-1.54s-1.52-2.68-1.52-4.97v-39.38c0-1.52.23-2.77.68-3.73.45-.97,1.16-1.67,2.13-2.11.96-.44,2.2-.66,3.7-.66h28.02c1.69,0,2.95.38,3.77,1.13.82.75,1.23,1.73,1.23,2.95s-.41,2.23-1.23,2.98c-.82.75-2.08,1.13-3.77,1.13Z"/>
      </g>
    </g>
  </g>
</svg>